#!OML:ASF F:\VICON\USERDATA\INSTALL\rory3\rory3.ASF
:FULLY-SPECIFIED
:DEGREES
31
root 0.358019 18.0617 -22.6208 -1.78763 -6.29226 -5.23248
lowerback 12.2732 0.997783 3.57822
upperback 0.555298 2.02377 3.10707
thorax -6.2994 0.93022 0.903469
lowerneck -13.8819 -2.64631 -1.8035
upperneck 20.7047 -3.31746 0.232604
head 8.7964 -1.67856 -0.00583731
rclavicle 6.28657e-015 1.94809e-014
rhumerus -27.1733 -17.7941 -78.5465
rradius 24.8359
rwrist 3.27601
rhand -18.3693 25.1148
rfingers 7.12502
rthumb 7.91389 -4.71705
lclavicle 6.28657e-015 1.94809e-014
lhumerus -33.051 5.12494 82.3532
lradius 25.3122
lwrist 4.55915
lhand -28.2788 18.8371
lfingers 7.12502
lthumb -1.65518 48.8104
rfemur -8.29395 6.65976 33.0159
rtibia 30.5862
rfoot -16.4746 -4.72275
rtoes 9.89277
lfemur -25.8565 4.11014 -14.6562
ltibia 64.5025
lfoot -4.61555 -2.18396
ltoes -5.92725
32
root 0.35679 18.0383 -22.4553 -1.70962 -6.33417 -5.51788
lowerback 12.3052 1.05036 3.93686
upperback 0.60845 2.14224 3.10665
thorax -6.24712 0.978614 0.680854
lowerneck -14.4163 -2.6795 -1.64539
upperneck 20.7873 -3.35817 0.0900903
head 8.91765 -1.69802 -0.0935857
rclavicle 2.70844e-015 -1.70955e-014
rhumerus -26.5034 -17.3125 -78.9747
rradius 25.3312
rwrist 2.88813
rhand -18.056 23.6297
rfingers 7.12502
rthumb 8.2163 -6.19054
lclavicle 2.70844e-015 -1.70955e-014
lhumerus -33.0792 4.72673 82.571
lradius 25.2125
lwrist 4.63142
lhand -28.4919 20.1434
lfingers 7.12502
lthumb -1.86099 50.115
rfemur -7.73028 6.68143 33.3787
rtibia 30.5929
rfoot -16.908 -5.15728
rtoes 8.90471
lfemur -26.7514 3.93394 -14.3342
ltibia 63.257
lfoot -5.78175 -1.13342
ltoes -5.62378
33
root 0.359349 18.0051 -22.2903 -1.71091 -6.15724 -5.64273
lowerback 12.2721 1.05259 4.25485
upperback 0.617066 2.17945 2.99488
thorax -6.20265 0.986869 0.378943
lowerneck -14.4759 -2.71166 -1.43261
upperneck 20.7467 -3.4454 0.0593698
head 8.91049 -1.72513 -0.150118
rclavicle -1.61513e-014 2.26615e-014
rhumerus -25.9211 -16.719 -79.4404
rradius 25.6951
rwrist 2.27385
rhand -18.1091 23.4534
rfingers 7.12502
rthumb 8.16506 -6.3688
lclavicle -1.61513e-014 2.26615e-014
lhumerus -33.2836 4.47615 82.5803
lradius 25.1314
lwrist 4.20482
lhand -28.5519 21.1435
lfingers 7.12502
lthumb -1.91893 51.1146
rfemur -7.10223 6.25088 33.5181
rtibia 30.5628
rfoot -17.4422 -5.35632
rtoes 7.80746
lfemur -27.537 3.60888 -14.2484
ltibia 61.8581
lfoot -5.95724 -0.299384
ltoes -6.11844
34
root 0.359132 17.9891 -22.1213 -1.65494 -6.23076 -5.7019
lowerback 12.2029 1.05364 4.43503
upperback 0.593624 2.19819 2.93141
thorax -6.17908 0.990212 0.209186
lowerneck -14.248 -2.68869 -1.57783
upperneck 20.5467 -3.41176 0.197793
head 8.80537 -1.70718 -0.0700526
rclavicle -2.04251e-014 -2.54444e-014
rhumerus -25.5081 -15.8218 -79.8813
rradius 26.2427
rwrist 1.61562
rhand -18.0887 23.6902
rfingers 7.12502
rthumb 8.1847 -6.13127
lclavicle -2.04251e-014 -2.54444e-014
lhumerus -33.7992 4.51725 82.5613
lradius 25.2695
lwrist 4.24478
lhand -28.5767 21.2769
lfingers 7.12502
lthumb -1.94293 51.2478
rfemur -6.43837 5.93309 33.5444
rtibia 30.3892
rfoot -17.9027 -5.18972
rtoes 7.33418
lfemur -28.1264 3.53292 -14.2225
ltibia 60.2053
lfoot -6.0285 0.63342
ltoes -7.21597
